<?xml version="1.0" standalone="no"?><!DOCTYPE svg PUBLIC "-//W3C//DTD SVG 1.1//EN" "http://www.w3.org/Graphics/SVG/1.1/DTD/svg11.dtd"><svg class="icon" width="200px" height="200.00px" viewBox="0 0 1024 1024" version="1.1" xmlns="http://www.w3.org/2000/svg"><path d="M152 112h294c22.091 0 40 17.909 40 40v294c0 22.091-17.909 40-40 40H152c-22.091 0-40-17.909-40-40V152c0-22.091 17.909-40 40-40z m573 0c-103.277 0-187 83.723-187 187s83.723 187 187 187 187-83.723 187-187-83.723-187-187-187zM152 912h294c22.091 0 40-17.909 40-40V578c0-22.091-17.909-40-40-40H152c-22.091 0-40 17.909-40 40v294c0 22.091 17.909 40 40 40z m720 0H578c-22.091 0-40-17.909-40-40V578c0-22.091 17.909-40 40-40h294c22.091 0 40 17.909 40 40v294c0 22.091-17.909 40-40 40z" /></svg>