<?xml version="1.0" standalone="no"?><!DOCTYPE svg PUBLIC "-//W3C//DTD SVG 1.1//EN" "http://www.w3.org/Graphics/SVG/1.1/DTD/svg11.dtd"><svg class="icon" width="200px" height="200.00px" viewBox="0 0 1024 1024" version="1.1" xmlns="http://www.w3.org/2000/svg"><path d="M896 320V223.744C896 206.56 881.664 192 864 192H160c-17.696 0-32 14.208-32 31.744V320h768z m0 64H128v416.256c0 17.184 14.336 31.744 32 31.744h704c17.696 0 32-14.208 32-31.744V384zM64 192.16C64 156.736 92.8 128 127.712 128H896.32C931.488 128 960 156.704 960 192.16v639.68C960 867.264 931.2 896 896.288 896H127.68C92.512 896 64 867.296 64 831.84V192.16zM224 512c0-17.664 14.24-32 32-32h448c17.664 0 32 14.208 32 32 0 17.664-14.24 32-32 32H256c-17.664 0-32-14.208-32-32z m0 128c0-17.664 14.496-32 31.904-32h192.192c17.6 0 31.904 14.208 31.904 32 0 17.664-14.496 32-31.904 32H255.904A31.872 31.872 0 0 1 224 640z" /></svg>