<?xml version="1.0" standalone="no"?><!DOCTYPE svg PUBLIC "-//W3C//DTD SVG 1.1//EN" "http://www.w3.org/Graphics/SVG/1.1/DTD/svg11.dtd"><svg class="icon" width="200px" height="200.00px" viewBox="0 0 1024 1024" version="1.1" xmlns="http://www.w3.org/2000/svg"><path d="M896 64H128c-35.2 0-64 28.8-64 64v768c0 35.2 28.8 64 64 64h768c35.2 0 64-28.8 64-64V128c0-35.2-28.8-64-64-64z m0 800c0 19.2-12.8 32-32 32H160c-19.2 0-32-12.8-32-32V160c0-19.2 12.8-32 32-32h704c19.2 0 32 12.8 32 32v704zM694.4 364.8L467.2 592l-112-112c-12.8-12.8-32-12.8-44.8 0-12.8 12.8-12.8 32 0 44.8l134.4 134.4c6.4 6.4 12.8 9.6 22.4 9.6 9.6 0 16-3.2 22.4-9.6l249.6-249.6c12.8-12.8 12.8-32 0-44.8-12.8-9.6-32-9.6-44.8 0z" /></svg>