<?xml version="1.0" standalone="no"?><!DOCTYPE svg PUBLIC "-//W3C//DTD SVG 1.1//EN" "http://www.w3.org/Graphics/SVG/1.1/DTD/svg11.dtd"><svg class="icon" width="200px" height="200.00px" viewBox="0 0 1024 1024" version="1.1" xmlns="http://www.w3.org/2000/svg"><path d="M465.92 1008.64a666.88 666.88 0 0 1-67.84-5.12h-6.4c-172.8-26.24-290.56-192-295.68-200.96A492.16 492.16 0 0 1 170.24 147.2a485.12 485.12 0 0 1 646.4-19.2 620.8 620.8 0 0 1 192 290.56c21.12 115.84 3.84 200.96-51.84 256-85.76 81.92-227.2 55.68-246.4 51.84a64 64 0 0 0-59.52 22.4 68.48 68.48 0 0 0-13.44 59.52 145.28 145.28 0 0 1 5.76 99.84 178.56 178.56 0 0 1-179.84 97.92z m-64-64h5.76c98.56 15.36 158.72-3.84 183.04-58.88a99.84 99.84 0 0 0-8.32-55.04 128 128 0 0 1 23.68-116.48 124.16 124.16 0 0 1 115.84-44.8h3.2s128 26.88 192-35.84c39.68-38.4 51.84-105.6 34.56-199.04a554.88 554.88 0 0 0-174.08-256A422.4 422.4 0 0 0 211.2 192a428.8 428.8 0 0 0-64 576s107.52 152.32 256 174.08z m0 0M223.36 622.72a93.44 93.44 0 1 1 92.8-92.8 92.8 92.8 0 0 1-92.8 92.8z m0-121.6a28.8 28.8 0 1 0 0 56.96 28.8 28.8 0 1 0 0-56.96zM294.4 439.68a93.44 93.44 0 1 1 93.44-92.8A93.44 93.44 0 0 1 294.4 439.68zM294.4 320a28.8 28.8 0 1 0 28.8 28.8A28.8 28.8 0 0 0 294.4 320zM477.44 338.56a93.44 93.44 0 1 1 93.44-93.44 93.44 93.44 0 0 1-93.44 93.44z m0-122.24a28.8 28.8 0 1 0 0 57.6 28.8 28.8 0 1 0 0-57.6zM680.32 389.12a93.44 93.44 0 1 1 93.44-93.44 92.8 92.8 0 0 1-93.44 93.44z m0-122.24a28.8 28.8 0 0 0-28.16 28.8 28.8 28.8 0 1 0 56.96 0 28.8 28.8 0 0 0-28.8-28.8zM782.08 551.68a93.44 93.44 0 1 1 93.44-93.44 93.44 93.44 0 0 1-93.44 93.44z m0-121.6a28.8 28.8 0 1 0 0 56.96 28.8 28.8 0 1 0 0-56.96z" /></svg>