<?xml version="1.0" standalone="no"?><!DOCTYPE svg PUBLIC "-//W3C//DTD SVG 1.1//EN" "http://www.w3.org/Graphics/SVG/1.1/DTD/svg11.dtd"><svg class="icon" width="200px" height="200.00px" viewBox="0 0 1024 1024" version="1.1" xmlns="http://www.w3.org/2000/svg"><path d="M93.184 0A93.403429 93.403429 0 0 0 0 93.184v92.891429a93.476571 93.476571 0 0 0 93.184 93.184h837.632A93.476571 93.476571 0 0 0 1024 186.148571V93.184A93.476571 93.476571 0 0 0 930.816 0H93.184zM0 558.592c0.146286 51.346286 41.837714 92.891429 93.184 92.891429h92.891429c51.419429 0 93.110857-41.545143 93.184-92.891429V465.408a93.184 93.184 0 0 0-93.110858-92.891429H93.184C41.837714 372.516571 0.146286 413.988571 0 465.408v93.184z m372.516571 0c0.073143 51.2 41.691429 92.818286 92.891429 92.891429h93.184c51.2-0.073143 92.818286-41.691429 92.891429-92.891429V465.408a93.184 93.184 0 0 0-92.891429-92.891429H465.408c-51.2 0.073143-92.818286 41.691429-92.891429 92.891429v93.184z m372.150858 0c0.146286 51.346286 41.837714 92.891429 93.257142 92.891429h92.891429c51.346286 0 93.037714-41.545143 93.184-92.891429V465.408a93.184 93.184 0 0 0-93.184-92.891429h-92.891429c-51.419429 0-93.110857 41.545143-93.184 92.891429v93.184zM0 930.816A93.476571 93.476571 0 0 0 93.184 1024h92.891429a93.476571 93.476571 0 0 0 93.184-93.184v-92.891429a93.476571 93.476571 0 0 0-93.110858-93.184H93.184A93.476571 93.476571 0 0 0 0 837.924571v92.891429z m372.516571 0c0 51.346286 41.545143 93.037714 92.891429 93.184h93.184a93.184 93.184 0 0 0 92.891429-93.184v-92.891429c0-51.419429-41.545143-93.110857-92.891429-93.184H465.408a93.184 93.184 0 0 0-92.891429 93.184v92.891429z m372.150858 0A93.476571 93.476571 0 0 0 837.997714 1024h92.891429A93.476571 93.476571 0 0 0 1024 930.816v-92.891429a93.476571 93.476571 0 0 0-93.184-93.184h-92.891429a93.476571 93.476571 0 0 0-93.184 93.184v92.891429z" /></svg>