<?xml version="1.0" standalone="no"?><!DOCTYPE svg PUBLIC "-//W3C//DTD SVG 1.1//EN" "http://www.w3.org/Graphics/SVG/1.1/DTD/svg11.dtd"><svg class="icon" width="200px" height="200.00px" viewBox="0 0 1024 1024" version="1.1" xmlns="http://www.w3.org/2000/svg"><path d="M486.4 761.6c-51.2 0-96 38.4-102.4 83.2H236.8c-12.8 0-19.2-6.4-25.6-12.8-6.4-6.4-12.8-19.2-12.8-25.6V512H384c12.8 44.8 51.2 83.2 102.4 83.2 57.6 0 108.8-51.2 108.8-108.8s-51.2-108.8-108.8-108.8c-51.2 0-96 32-102.4 83.2H198.4V243.2h102.4c12.8 0 19.2-6.4 32-12.8 6.4-6.4 12.8-19.2 12.8-32V102.4c0-25.6-19.2-44.8-44.8-44.8h-256c-25.6 0-44.8 19.2-44.8 44.8v96c0 12.8 6.4 19.2 12.8 32 6.4 6.4 19.2 12.8 32 12.8h102.4v563.2c0 51.2 38.4 89.6 89.6 89.6H384c12.8 44.8 51.2 83.2 102.4 83.2 57.6 0 108.8-51.2 108.8-108.8 0-64-51.2-108.8-108.8-108.8z m0-326.4c25.6 0 51.2 25.6 51.2 51.2s-25.6 51.2-51.2 51.2c-32 0-51.2-25.6-51.2-51.2 0-32 19.2-51.2 51.2-51.2zM51.2 192V108.8h243.2V192H51.2z m435.2 729.6c-25.6 0-51.2-25.6-51.2-51.2s25.6-51.2 51.2-51.2 51.2 25.6 51.2 51.2-25.6 51.2-51.2 51.2zM384 64h576v64H384zM384 192h576v64H384zM633.6 384H960v64H633.6zM633.6 512H960v64H633.6zM633.6 768H960v64H633.6zM633.6 896H960v64H633.6z" /></svg>