<?xml version="1.0" standalone="no"?><!DOCTYPE svg PUBLIC "-//W3C//DTD SVG 1.1//EN" "http://www.w3.org/Graphics/SVG/1.1/DTD/svg11.dtd"><svg class="icon" width="200px" height="200.00px" viewBox="0 0 1024 1024" version="1.1" xmlns="http://www.w3.org/2000/svg"><path d="M675.84 198.656v36.864c0 12.288-8.192 20.48-20.48 20.48s-20.48-8.192-20.48-20.48v-36.864h-266.24v36.864c0 12.288-8.192 20.48-20.48 20.48s-20.48-8.192-20.48-20.48v-36.864h-143.36c-34.816 0-61.44 26.624-61.44 61.44v118.784h778.24v-118.784c0-34.816-26.624-61.44-61.44-61.44h-163.84z m0-40.96h163.84c57.344 0 102.4 45.056 102.4 102.4v278.528c0 12.288-8.192 20.48-20.48 20.48s-20.48-8.192-20.48-20.48v-120.832h-778.24v393.216c0 34.816 26.624 61.44 61.44 61.44h655.36c34.816 0 61.44-26.624 61.44-61.44v-88.064c0-12.288 8.192-20.48 20.48-20.48s20.48 8.192 20.48 20.48v88.064c0 57.344-45.056 102.4-102.4 102.4h-655.36c-57.344 0-102.4-45.056-102.4-102.4v-552.96c0-57.344 45.056-102.4 102.4-102.4h143.36v-28.672c0-12.288 8.192-20.48 20.48-20.48s20.48 8.192 20.48 20.48v28.672h266.24v-28.672c0-12.288 8.192-20.48 20.48-20.48s20.48 8.192 20.48 20.48v30.72z m-231.424 401.408c34.816-8.192 61.44-24.576 79.872-49.152h24.576V768h-43.008v-196.608c-14.336 10.24-34.816 18.432-61.44 22.528v-34.816z" /></svg>