<?xml version="1.0" standalone="no"?><!DOCTYPE svg PUBLIC "-//W3C//DTD SVG 1.1//EN" "http://www.w3.org/Graphics/SVG/1.1/DTD/svg11.dtd"><svg class="icon" width="200px" height="200.00px" viewBox="0 0 1024 1024" version="1.1" xmlns="http://www.w3.org/2000/svg"><path d="M102.4 409.6h819.2V306.961067A34.030933 34.030933 0 0 0 887.466667 273.066667H512V170.734933A34.030933 34.030933 0 0 0 477.7984 136.533333H136.6016C117.9648 136.533333 102.4 151.8592 102.4 170.734933V409.6z m0 68.266667v375.3984A34.030933 34.030933 0 0 0 136.533333 887.466667h750.933334c18.875733 0 34.133333-15.189333 34.133333-33.8944V477.866667H102.4z m477.866667-273.066667h341.640533C959.453867 204.8 989.866667 235.178667 989.866667 272.759467V887.808c0 37.546667-30.72 67.959467-67.959467 67.959467H102.058667c-18.773333 0-35.7376-7.5776-48.059734-19.899734A68.471467 68.471467 0 0 1 34.133333 887.569067V136.430933C34.133333 98.781867 64.682667 68.266667 102.1952 68.266667h410.0096C549.7856 68.266667 580.266667 98.816 580.266667 136.430933V204.8z" /></svg>