<?xml version="1.0" standalone="no"?><!DOCTYPE svg PUBLIC "-//W3C//DTD SVG 1.1//EN" "http://www.w3.org/Graphics/SVG/1.1/DTD/svg11.dtd"><svg class="icon" width="200px" height="200.00px" viewBox="0 0 1024 1024" version="1.1" xmlns="http://www.w3.org/2000/svg"><path d="M128 704h128a64 64 0 0 1 64 64v128a64 64 0 0 1-64 64H128a64 64 0 0 1-64-64v-128a64 64 0 0 1 64-64z m32 64a32 32 0 0 0-32 32v64a32 32 0 0 0 32 32h64a32 32 0 0 0 32-32v-64a32 32 0 0 0-32-32H160zM768 64h128a64 64 0 0 1 64 64v128a64 64 0 0 1-64 64h-128a64 64 0 0 1-64-64V128a64 64 0 0 1 64-64z m32 64a32 32 0 0 0-32 32v64a32 32 0 0 0 32 32h64a32 32 0 0 0 32-32V160a32 32 0 0 0-32-32h-64zM448 704h128a64 64 0 0 1 64 64v128a64 64 0 0 1-64 64h-128a64 64 0 0 1-64-64v-128a64 64 0 0 1 64-64z m32 64a32 32 0 0 0-32 32v64a32 32 0 0 0 32 32h64a32 32 0 0 0 32-32v-64a32 32 0 0 0-32-32h-64zM448 64h128a64 64 0 0 1 64 64v128a64 64 0 0 1-64 64h-128a64 64 0 0 1-64-64V128a64 64 0 0 1 64-64z m32 64a32 32 0 0 0-32 32v64a32 32 0 0 0 32 32h64a32 32 0 0 0 32-32V160a32 32 0 0 0-32-32h-64z m288 576h128a64 64 0 0 1 64 64v128a64 64 0 0 1-64 64h-128a64 64 0 0 1-64-64v-128a64 64 0 0 1 64-64z m32 64a32 32 0 0 0-32 32v64a32 32 0 0 0 32 32h64a32 32 0 0 0 32-32v-64a32 32 0 0 0-32-32h-64zM448 384h128a64 64 0 0 1 64 64v128a64 64 0 0 1-64 64h-128a64 64 0 0 1-64-64v-128a64 64 0 0 1 64-64z m32 64a32 32 0 0 0-32 32v64a32 32 0 0 0 32 32h64a32 32 0 0 0 32-32v-64a32 32 0 0 0-32-32h-64zM128 384h128a64 64 0 0 1 64 64v128a64 64 0 0 1-64 64H128a64 64 0 0 1-64-64v-128a64 64 0 0 1 64-64z m640 0h128a64 64 0 0 1 64 64v128a64 64 0 0 1-64 64h-128a64 64 0 0 1-64-64v-128a64 64 0 0 1 64-64z m32 64a32 32 0 0 0-32 32v64a32 32 0 0 0 32 32h64a32 32 0 0 0 32-32v-64a32 32 0 0 0-32-32h-64zM160 448a32 32 0 0 0-32 32v64a32 32 0 0 0 32 32h64a32 32 0 0 0 32-32v-64a32 32 0 0 0-32-32H160zM128 64h128a64 64 0 0 1 64 64v128a64 64 0 0 1-64 64H128a64 64 0 0 1-64-64V128a64 64 0 0 1 64-64z m32 64a32 32 0 0 0-32 32v64a32 32 0 0 0 32 32h64a32 32 0 0 0 32-32V160a32 32 0 0 0-32-32H160z" /></svg>