<?xml version="1.0" standalone="no"?><!DOCTYPE svg PUBLIC "-//W3C//DTD SVG 1.1//EN" "http://www.w3.org/Graphics/SVG/1.1/DTD/svg11.dtd"><svg t="1694573191075" class="icon" viewBox="0 0 1024 1024" version="1.1" xmlns="http://www.w3.org/2000/svg" p-id="3363" xmlns:xlink="http://www.w3.org/1999/xlink" width="200" height="200"><path d="M457.955556 435.2l28.444444-73.955556c-88.177778 14.222222-156.444444 93.866667-156.444444 182.044445 0 42.666667 17.066667 82.488889 42.666666 116.622222l28.444445-71.111111c-5.688889-14.222222-8.533333-28.444444-8.533334-45.511111 0-42.666667 28.444444-85.333333 65.422223-108.088889z" p-id="3364"></path><path d="M85.333333 543.288889c99.555556-176.355556 247.466667-284.444444 426.666667-284.444445h14.222222l19.911111-56.888888H512c-105.244444 0-207.644444 31.288889-295.822222 93.866666C48.355556 412.444444 28.444444 543.288889 28.444444 543.288889s19.911111 130.844444 187.733334 247.466667c28.444444 19.911111 56.888889 34.133333 88.177778 48.355555l19.911111-54.044444c-105.244444-48.355556-196.266667-136.533333-238.933334-241.777778zM807.822222 292.977778c-25.6-17.066667-54.044444-34.133333-82.488889-45.511111l-22.755555 54.044444c105.244444 48.355556 193.422222 136.533333 236.088889 238.933333-68.266667 164.977778-247.466667 284.444444-426.666667 284.444445h-25.6l-22.755556 56.888889c17.066667 2.844444 31.288889 2.844444 48.355556 2.844444 105.244444 0 207.644444-31.288889 295.822222-93.866666 85.333333-59.733333 153.6-133.688889 187.733334-247.466667 0 0-28.444444-136.533333-187.733334-250.311111z" p-id="3365"></path><path d="M557.511111 657.066667l-28.444444 71.111111c91.022222-8.533333 164.977778-91.022222 164.977777-184.888889 0-42.666667-14.222222-82.488889-39.822222-113.777778l-28.444444 65.422222c8.533333 14.222222 11.377778 31.288889 11.377778 48.355556-2.844444 45.511111-36.977778 91.022222-79.644445 113.777778zM708.266667 142.222222H654.222222L312.888889 995.555556s0 2.844444 2.844444 2.844444h51.2c2.844444 0 2.844444 0 2.844445-2.844444L711.111111 147.911111c0-2.844444 0-5.688889-2.844444-5.688889z" p-id="3366"></path></svg>