<?xml version="1.0" standalone="no"?><!DOCTYPE svg PUBLIC "-//W3C//DTD SVG 1.1//EN" "http://www.w3.org/Graphics/SVG/1.1/DTD/svg11.dtd"><svg class="icon" width="200px" height="200.00px" viewBox="0 0 1024 1024" version="1.1" xmlns="http://www.w3.org/2000/svg"><path d="M552.96 286.72v-122.88h-409.6v-40.96h450.56v204.8h-450.56v-40.96h409.6z m0 573.44v-122.88h-409.6v-40.96h450.56v204.8h-450.56v-40.96h409.6z m-292.864-415.744l-67.584 67.584 67.584 67.584c8.192 8.192 8.192 20.48 0 28.672-8.192 8.192-20.48 8.192-28.672 0l-96.256-96.256 96.256-96.256c8.192-8.192 20.48-8.192 28.672 0 8.192 8.192 8.192 20.48 0 28.672z m129.024-34.816h512v204.8h-512v-204.8z m40.96 163.84h430.08v-122.88h-430.08v122.88z" /></svg>