<?xml version="1.0" standalone="no"?><!DOCTYPE svg PUBLIC "-//W3C//DTD SVG 1.1//EN" "http://www.w3.org/Graphics/SVG/1.1/DTD/svg11.dtd"><svg class="icon" width="200px" height="200.00px" viewBox="0 0 1024 1024" version="1.1" xmlns="http://www.w3.org/2000/svg"><path d="M286.72 481.28h-122.88v409.6h-40.96v-450.56h204.8v450.56h-40.96v-409.6z m573.44 0h-122.88v409.6h-40.96v-450.56h204.8v450.56h-40.96v-409.6z m-280.576 403.456l-67.584-67.584-67.584 67.584c-8.192 8.192-20.48 8.192-28.672 0-8.192-8.192-8.192-20.48 0-28.672l96.256-96.256 96.256 96.256c8.192 8.192 8.192 20.48 0 28.672-8.192 8.192-20.48 8.192-28.672 0zM409.6 645.12v-512h204.8v512h-204.8z m163.84-40.96v-430.08h-122.88v430.08h122.88z" /></svg>