<?xml version="1.0" standalone="no"?><!DOCTYPE svg PUBLIC "-//W3C//DTD SVG 1.1//EN" "http://www.w3.org/Graphics/SVG/1.1/DTD/svg11.dtd"><svg class="icon" width="200px" height="200.00px" viewBox="0 0 1024 1024" version="1.1" xmlns="http://www.w3.org/2000/svg"><path d="M512 128h0.810667a35.029333 35.029333 0 0 1 5.546666 0.469333l2.218667 0.384c0.938667 0.170667 1.877333 0.426667 2.773333 0.64a26.368 26.368 0 0 1 1.962667 0.597334c0.853333 0.256 1.664 0.597333 2.517333 0.896a34.858667 34.858667 0 0 1 4.821334 2.304l1.536 0.896a40.874667 40.874667 0 0 1 7.936 6.272l-3.84-3.413334 0.384 0.298667 3.498666 3.114667 256 256a42.624 42.624 0 1 1-60.330666 60.330666L554.666667 273.664V853.333333a42.666667 42.666667 0 0 1-37.674667 42.368L512 896a42.666667 42.666667 0 0 1-42.666667-42.666667V273.664l-183.168 183.168a42.666667 42.666667 0 0 1-56.32 3.541333l-4.010666-3.541333a42.624 42.624 0 0 1 0-60.330667l256-256 3.498666-3.114666 0.384-0.298667 0.896-0.682667a32.085333 32.085333 0 0 1 3.2-2.133333c0.512-0.298667 1.024-0.64 1.578667-0.896a49.536 49.536 0 0 1 4.821333-2.261333l2.56-0.938667 1.962667-0.597333 2.773333-0.682667 2.218667-0.384A37.333333 37.333333 0 0 1 512 128l-3.797333 0.170667 3.029333-0.170667H512z" /></svg>