<?xml version="1.0" standalone="no"?><!DOCTYPE svg PUBLIC "-//W3C//DTD SVG 1.1//EN" "http://www.w3.org/Graphics/SVG/1.1/DTD/svg11.dtd"><svg t="1711416766735" class="icon" viewBox="0 0 1024 1024" version="1.1" xmlns="http://www.w3.org/2000/svg" p-id="985" xmlns:xlink="http://www.w3.org/1999/xlink" width="200" height="200"><path d="M823.59 808.08a18 18 0 0 1-8.92-33.64L885 734.37a17.62 17.62 0 0 0 9-15.26V304.89a17.62 17.62 0 0 0-9-15.26l-127.86-72.8A18 18 0 1 1 775 185.55l127.86 72.79A53.71 53.71 0 0 1 930 304.89v414.22a53.71 53.71 0 0 1-27.15 46.55l-70.37 40.06a17.92 17.92 0 0 1-8.89 2.36zM512 980a54.33 54.33 0 0 1-26.85-7.07l-364-207.24A53.71 53.71 0 0 1 94 719.11V584.28a18 18 0 0 1 36 0v134.83a17.62 17.62 0 0 0 9 15.26l364 207.24a18.32 18.32 0 0 0 18.08 0L722 827.21a18 18 0 1 1 17.81 31.28L538.85 972.9A54.3 54.3 0 0 1 512 980zM112 522.41a18 18 0 0 1-18-18V304.89a53.71 53.71 0 0 1 27.15-46.55l364-207.24a54.5 54.5 0 0 1 53.7 0l133.85 76.2a18 18 0 0 1-17.82 31.29L521 82.39a18.32 18.32 0 0 0-18.08 0L139 289.63a17.62 17.62 0 0 0-9 15.26v199.52a18 18 0 0 1-18 18z" fill="#1A1A1A" p-id="986"></path><path d="M512 764.45a54.06 54.06 0 0 1-26.92-7.16L312.39 658a54.15 54.15 0 0 1-27.09-46.82V412.83A54.15 54.15 0 0 1 312.39 366l172.69-99.3a54.22 54.22 0 0 1 53.84 0L711.61 366a54.15 54.15 0 0 1 27.09 46.82v198.35A54.15 54.15 0 0 1 711.61 658l-172.69 99.3a54 54 0 0 1-26.92 7.15z m0-468.91a18 18 0 0 0-9 2.38l-172.7 99.3a18 18 0 0 0-9 15.61v198.34a18 18 0 0 0 9 15.61l172.7 99.3a18.06 18.06 0 0 0 17.94 0l172.7-99.3a18 18 0 0 0 9-15.61V412.83a18 18 0 0 0-9-15.61L521 297.92a18 18 0 0 0-9-2.38z" fill="#1A1A1A" p-id="987"></path><path d="M530 746h-36V503.73l208.04-119.44 17.92 31.21L530 524.57V746z" fill="#1A1A1A" p-id="988"></path><path d="M304.034 415.482l17.924-31.22L520.964 498.51l-17.924 31.221z" fill="#1A1A1A" p-id="989"></path></svg>