<?xml version="1.0" standalone="no"?><!DOCTYPE svg PUBLIC "-//W3C//DTD SVG 1.1//EN" "http://www.w3.org/Graphics/SVG/1.1/DTD/svg11.dtd"><svg class="icon" width="200px" height="200.00px" viewBox="0 0 1024 1024" version="1.1" xmlns="http://www.w3.org/2000/svg"><path d="M938.234963 0c47.135594 0 85.317344 38.18175 85.317345 85.253388v852.789707c0 47.071638-38.18175 85.253388-85.317345 85.253389H85.509212a85.253388 85.253388 0 0 1-85.253388-85.253389V85.189432C0.255824 38.18175 38.373618 0 85.509212 0z m-351.758166 63.95603H85.509212a21.297358 21.297358 0 0 0-21.297358 21.297358v852.789707c0 11.76791 9.529449 21.297358 21.297358 21.297358H938.234963c11.76791 0 21.361314-9.593405 21.361315-21.297358V436.947599H618.454812a31.978015 31.978015 0 0 1-31.466367-26.221973l-0.511648-5.756043V63.95603zM485.234401 506.339891l3.38967 0.191868 4.796702 0.831429 2.814066 0.895384 3.517581 1.534945 4.796702 3.005933 3.325714 2.878022 2.366373 2.686153 3.325714 5.116482 2.174505 5.116483 0.95934 4.093186 0.511648 5.62813v186.495785a31.978015 31.978015 0 1 1-63.95603 0v-109.364812l-211.886328 211.950284a31.978015 31.978015 0 1 1-45.216913-45.216913l211.822372-211.886328H298.674661a31.978015 31.978015 0 1 1 0-63.956031h186.55974zM938.234963 63.95603h-287.802136v309.099494h309.099495v-287.802136a21.297358 21.297358 0 0 0-16.948348-20.849666L938.234963 63.95603z" /></svg>