<?xml version="1.0" standalone="no"?><!DOCTYPE svg PUBLIC "-//W3C//DTD SVG 1.1//EN" "http://www.w3.org/Graphics/SVG/1.1/DTD/svg11.dtd"><svg class="icon" width="200px" height="200.00px" viewBox="0 0 1024 1024" version="1.1" xmlns="http://www.w3.org/2000/svg"><path d="M308.672 920.48l203.296-104.896 203.296 104.896c21.856 11.168 48 9.824 68.608-3.52 20.16-13.376 30.528-36.288 26.464-59.136l-39.616-226.784 170.88-163.552c16.96-16.16 22.72-39.808 15.04-61.312-7.712-21.44-27.616-37.12-51.552-40.576l-233.152-33.216-101.376-201.664C559.904 109.568 537.056 96 511.968 96c-25.056 0-47.904 13.568-58.56 34.72L352 332.384l-233.152 33.216c-24 3.456-43.84 19.104-51.552 40.576a57.44 57.44 0 0 0 15.04 61.312l170.816 163.52-39.616 226.816c-4 22.848 6.304 45.76 26.56 59.136A67.84 67.84 0 0 0 277.376 928c10.784 0 21.568-2.496 31.296-7.52z m46.08-524.96l39.904-5.6 17.536-34.336 85.248-167.136c8-15.712 21.056-15.616 29.024 0l85.28 167.136 17.536 34.336 39.904 5.632 195.232 27.424c17.408 2.432 21.184 14.176 8.192 26.432l-142.016 133.92-27.84 26.208 6.496 36.544 33.12 186.688c3.04 17.28-6.976 24.864-23.104 16.672l-171.232-87.072-36.064-18.368-36.16 18.368-171.2 87.072c-15.84 8.032-26.112 0.256-23.104-16.64L314.56 646.08l6.464-36.544-27.776-26.208-141.984-133.92c-12.896-12.16-9.152-24 8.192-26.432l195.264-27.424v-0.032z" /></svg>