<?xml version="1.0" standalone="no"?><!DOCTYPE svg PUBLIC "-//W3C//DTD SVG 1.1//EN" "http://www.w3.org/Graphics/SVG/1.1/DTD/svg11.dtd"><svg class="icon" width="200px" height="200.00px" viewBox="0 0 1024 1024" version="1.1" xmlns="http://www.w3.org/2000/svg"><path d="M512 128a42.666667 42.666667 0 0 1 42.666667 42.666667v579.626666l183.168-183.125333a42.666667 42.666667 0 0 1 56.32-3.541333l4.010666 3.541333a42.624 42.624 0 0 1 0 60.330667l-256 256a48.725333 48.725333 0 0 1-3.84 3.413333l-0.896 0.682667a32.085333 32.085333 0 0 1-3.2 2.133333c-0.512 0.298667-1.024 0.64-1.578666 0.896a49.536 49.536 0 0 1-4.821334 2.261333l-2.56 0.938667-1.962666 0.597333a65.621333 65.621333 0 0 1-2.773334 0.682667l-2.218666 0.384A38.229333 38.229333 0 0 1 512 896l3.626667-0.170667-2.218667 0.128L512 896l-1.408-0.042667-2.261333-0.128a51.754667 51.754667 0 0 1-2.688-0.298666l-2.218667-0.384c-0.938667-0.170667-1.877333-0.426667-2.773333-0.64a26.368 26.368 0 0 1-1.962667-0.597334c-0.853333-0.256-1.664-0.597333-2.517333-0.896a34.858667 34.858667 0 0 1-4.821334-2.304l-1.536-0.896a40.874667 40.874667 0 0 1-7.936-6.272l3.84 3.413334a42.112 42.112 0 0 1-3.84-3.413334l-256-256a42.624 42.624 0 1 1 60.330667-60.330666L469.333333 750.293333V170.666667a42.666667 42.666667 0 0 1 37.674667-42.368L512 128z" /></svg>