<?xml version="1.0" standalone="no"?><!DOCTYPE svg PUBLIC "-//W3C//DTD SVG 1.1//EN" "http://www.w3.org/Graphics/SVG/1.1/DTD/svg11.dtd"><svg class="icon" width="200px" height="200.00px" viewBox="0 0 1024 1024" version="1.1" xmlns="http://www.w3.org/2000/svg"><path d="M111.986018 1023.872016a111.986002 111.986002 0 0 1-111.986002-111.986002v-799.900012c0-61.880265 50.105737-111.986002 111.986002-111.986002h799.900012c61.816273 0 111.986002 50.105737 111.986002 111.986002v799.900012a111.986002 111.986002 0 0 1-111.986002 111.986002z m581.239345-959.880015H111.986018a47.994001 47.994001 0 0 0-47.994001 47.994001v799.900012c0 26.492688 21.43732 47.994001 47.994001 47.994001h581.239345v-895.888014z m218.660667 0H757.153372v895.888014h154.668666a47.994001 47.994001 0 0 0 47.546057-41.466817l0.447944-6.527184v-799.900012a47.994001 47.994001 0 0 0-47.994001-47.994001z m-590.646169 318.680165l106.674666 106.610674a31.996 31.996 0 0 1 0 45.242344l-106.674666 106.674666a31.996 31.996 0 0 1-45.242345-45.242345l84.021498-84.085489-84.021498-83.957505a31.996 31.996 0 0 1-3.711536-40.826897l3.711536-4.47944a31.996 31.996 0 0 1 45.242345 0z" /></svg>