<?xml version="1.0" standalone="no"?><!DOCTYPE svg PUBLIC "-//W3C//DTD SVG 1.1//EN" "http://www.w3.org/Graphics/SVG/1.1/DTD/svg11.dtd"><svg class="icon" width="200px" height="200.00px" viewBox="0 0 1024 1024" version="1.1" xmlns="http://www.w3.org/2000/svg"><path d="M476.8 889.6h-176c-91.2 0-164.8-74.4-164.8-165.6v-424c0-91.2 73.6-165.6 164.8-165.6h422.4c91.2 0 164.8 74.4 164.8 165.6v176.8c0 13.6-10.4 24-24 24s-24-10.4-24-24V300c0-64.8-52-117.6-116.8-117.6H300.8c-64.8 0-116.8 52.8-116.8 117.6v424c0 64.8 52 117.6 116.8 117.6h176c13.6 0 24 10.4 24 24s-10.4 24-24 24zM806.4 889.6H633.6c-44.8 0-81.6-36.8-81.6-81.6V635.2c0-44.8 36.8-81.6 81.6-81.6h172.8c44.8 0 81.6 36.8 81.6 81.6V808c0 44.8-36.8 81.6-81.6 81.6z m-172.8-288c-19.2 0-33.6 14.4-33.6 33.6V808c0 19.2 14.4 33.6 33.6 33.6h172.8c19.2 0 33.6-14.4 33.6-33.6V635.2c0-19.2-14.4-33.6-33.6-33.6H633.6z" /></svg>