<?xml version="1.0" standalone="no"?><!DOCTYPE svg PUBLIC "-//W3C//DTD SVG 1.1//EN" "http://www.w3.org/Graphics/SVG/1.1/DTD/svg11.dtd"><svg class="icon" width="200px" height="200.00px" viewBox="0 0 1024 1024" version="1.1" xmlns="http://www.w3.org/2000/svg"><path d="M16.64 439.68m74.24 0l841.6 0q74.24 0 74.24 74.24l0-0.64q0 74.24-74.24 74.24l-841.6 0q-74.24 0-74.24-74.24l0 0.64q0-74.24 74.24-74.24ZM206.72 342.4m64 0l199.04 0q64 0 64 64l0 214.4q0 64-64 64l-199.04 0q-64 0-64-64l0-214.4q0-64 64-64ZM469.76 715.52H270.72a94.08 94.08 0 0 1-94.72-94.08V406.4a94.72 94.72 0 0 1 94.72-94.72h199.04a95.36 95.36 0 0 1 94.72 94.72v215.04a94.72 94.72 0 0 1-94.72 94.08zM270.72 373.12a33.28 33.28 0 0 0-33.28 33.28v215.04a32.64 32.64 0 0 0 33.28 32.64h199.04a32.64 32.64 0 0 0 33.28-32.64V406.4a33.28 33.28 0 0 0-33.28-33.28z" /></svg>