<?xml version="1.0" standalone="no"?><!DOCTYPE svg PUBLIC "-//W3C//DTD SVG 1.1//EN" "http://www.w3.org/Graphics/SVG/1.1/DTD/svg11.dtd"><svg t="1705385368899" class="icon" viewBox="0 0 1024 1024" version="1.1" xmlns="http://www.w3.org/2000/svg" p-id="4372" id="mx_n_1705385368900" xmlns:xlink="http://www.w3.org/1999/xlink" width="200" height="200"><path d="M877.714286 146.285714H146.285714c-40.228571 0-73.142857 32.914286-73.142857 73.142857v475.428572c0 40.228571 32.914286 73.142857 73.142857 73.142857h73.142857c21.942857 0 36.571429 14.628571 36.571429 36.571429 0 40.228571 32.914286 73.142857 73.142857 73.142857h365.714286c40.228571 0 73.142857-32.914286 73.142857-73.142857 0-21.942857 14.628571-36.571429 36.571429-36.571429h73.142857c40.228571 0 73.142857-32.914286 73.142857-73.142857V219.428571c0-40.228571-32.914286-73.142857-73.142857-73.142857z m0 512c0 21.942857-14.628571 36.571429-36.571429 36.571429h-73.142857c-40.228571 0-73.142857 32.914286-73.142857 73.142857 0 21.942857-14.628571 36.571429-36.571429 36.571429h-292.571428c-21.942857 0-36.571429-14.628571-36.571429-36.571429 0-40.228571-32.914286-73.142857-73.142857-73.142857H182.857143c-21.942857 0-36.571429-14.628571-36.571429-36.571429V256c0-21.942857 14.628571-36.571429 36.571429-36.571429h658.285714c21.942857 0 36.571429 14.628571 36.571429 36.571429v402.285714z" fill="#606060" p-id="4373"></path><path d="M512 365.714286c-21.942857 0-36.571429 14.628571-36.571429 32.914285v157.257143c0 18.285714 14.628571 32.914286 36.571429 32.914286s36.571429-14.628571 36.571429-32.914286v-157.257143c0-18.285714-14.628571-32.914286-36.571429-32.914285zM694.857143 365.714286c-21.942857 0-36.571429 14.628571-36.571429 32.914285v157.257143c0 18.285714 14.628571 32.914286 36.571429 32.914286s36.571429-14.628571 36.571428-32.914286v-157.257143c0-18.285714-14.628571-32.914286-36.571428-32.914285zM329.142857 365.714286c-21.942857 0-36.571429 14.628571-36.571428 32.914285v157.257143c0 14.628571 14.628571 29.257143 36.571428 29.257143s36.571429-14.628571 36.571429-32.914286v-157.257142c0-14.628571-14.628571-29.257143-36.571429-29.257143z" fill="#606060" p-id="4374"></path></svg>