<?xml version="1.0" standalone="no"?><!DOCTYPE svg PUBLIC "-//W3C//DTD SVG 1.1//EN" "http://www.w3.org/Graphics/SVG/1.1/DTD/svg11.dtd"><svg class="icon" width="200px" height="200.00px" viewBox="0 0 1024 1024" version="1.1" xmlns="http://www.w3.org/2000/svg"><path d="M704 256H320C179.2 256 64 371.2 64 512s115.2 256 256 256h384c140.8 0 256-115.2 256-256S844.8 256 704 256z m0 448H320c-105.6 0-192-86.4-192-192s86.4-192 192-192h384c105.6 0 192 86.4 192 192s-86.4 192-192 192zM160 512a160 160 0 1 0 320 0 160 160 0 1 0-320 0z" /></svg>