<?xml version="1.0" standalone="no"?><!DOCTYPE svg PUBLIC "-//W3C//DTD SVG 1.1//EN" "http://www.w3.org/Graphics/SVG/1.1/DTD/svg11.dtd"><svg class="icon" width="200px" height="200.00px" viewBox="0 0 1024 1024" version="1.1" xmlns="http://www.w3.org/2000/svg"><path d="M896 128H128c-35.2 0-64 28.8-64 64v640c0 35.2 28.8 64 64 64h768c35.2 0 64-28.8 64-64V192c0-35.2-28.8-64-64-64zM352 832H128V672h224v160z m0-224H128V448h224v160z m0-224H128V224h224v160z m256 448H416V672h192v160z m0-224H416V448h192v160z m0-224H416V224h192v160z m288 448H672V672h224v160z m0-224H672V448h224v160z m0-224H672V224h224v160z" /></svg>