<?xml version="1.0" standalone="no"?><!DOCTYPE svg PUBLIC "-//W3C//DTD SVG 1.1//EN" "http://www.w3.org/Graphics/SVG/1.1/DTD/svg11.dtd"><svg class="icon" width="200px" height="200.00px" viewBox="0 0 1024 1024" version="1.1" xmlns="http://www.w3.org/2000/svg"><path d="M721.92 844.8H281.6c-51.2 0-92.16-40.96-92.16-92.16V220.16c0-51.2 40.96-92.16 92.16-92.16h286.72c20.48 0 35.84 5.12 51.2 20.48l168.96 163.84c15.36 15.36 20.48 30.72 20.48 51.2v389.12c5.12 51.2-35.84 92.16-87.04 92.16z m-440.32-665.6c-20.48 0-40.96 15.36-40.96 40.96v532.48c0 20.48 15.36 40.96 40.96 40.96h440.32c20.48 0 40.96-15.36 40.96-40.96V363.52c0-5.12 0-10.24-5.12-15.36l-168.96-163.84c-5.12-5.12-10.24-5.12-15.36-5.12H281.6zM614.4 430.08H363.52c-15.36 0-25.6-10.24-25.6-25.6s10.24-25.6 25.6-25.6H614.4c15.36 0 25.6 10.24 25.6 25.6 0 10.24-10.24 25.6-25.6 25.6zM486.4 696.32c-15.36 0-25.6-10.24-25.6-25.6V404.48c0-15.36 10.24-25.6 25.6-25.6s25.6 10.24 25.6 25.6v266.24c0 15.36-10.24 25.6-25.6 25.6z" /></svg>