<?xml version="1.0" standalone="no"?><!DOCTYPE svg PUBLIC "-//W3C//DTD SVG 1.1//EN" "http://www.w3.org/Graphics/SVG/1.1/DTD/svg11.dtd"><svg class="icon" width="200px" height="200.00px" viewBox="0 0 1024 1024" version="1.1" xmlns="http://www.w3.org/2000/svg"><path d="M512 989.866667C249.173333 989.866667 34.133333 776.533333 34.133333 512c0-61.44 11.946667-119.466667 34.133334-175.786667 5.12-13.653333 20.48-18.773333 32.426666-13.653333 13.653333 5.12 18.773333 20.48 13.653334 32.426667C95.573333 404.48 85.333333 457.386667 85.333333 512c0 235.52 191.146667 426.666667 426.666667 426.666667s426.666667-191.146667 426.666667-426.666667S747.52 85.333333 512 85.333333c-13.653333 0-25.6-11.946667-25.6-25.6S498.346667 34.133333 512 34.133333c262.826667 0 477.866667 215.04 477.866667 477.866667S774.826667 989.866667 512 989.866667zM182.613333 211.626667c-6.826667 0-13.653333-3.413333-18.773333-8.533334-8.533333-10.24-8.533333-27.306667 1.706667-35.84 17.066667-15.36 37.546667-29.013333 56.32-42.666666 11.946667-6.826667 27.306667-3.413333 35.84 8.533333 6.826667 11.946667 3.413333 27.306667-8.533334 35.84-17.066667 11.946667-34.133333 23.893333-49.493333 37.546667-5.12 3.413333-10.24 5.12-17.066667 5.12zM479.573333 235.52c-13.653333 0-25.6-11.946667-25.6-25.6V160.426667c0-13.653333 11.946667-25.6 25.6-25.6s25.6 11.946667 25.6 25.6v49.493333c0 15.36-11.946667 25.6-25.6 25.6zM479.573333 856.746667c-13.653333 0-25.6-11.946667-25.6-25.6v-49.493334c0-13.653333 11.946667-25.6 25.6-25.6s25.6 11.946667 25.6 25.6v49.493334c0 15.36-11.946667 25.6-25.6 25.6zM209.92 544.426667h-51.2c-13.653333 0-25.6-11.946667-25.6-25.6s11.946667-23.893333 25.6-25.6h49.493333c13.653333 0 25.6 11.946667 25.6 25.6 1.706667 15.36-10.24 25.6-23.893333 25.6zM865.28 552.96h-51.2c-13.653333 0-25.6-11.946667-25.6-25.6s11.946667-25.6 25.6-25.6h49.493333c13.653333 0 25.6 11.946667 25.6 25.6 1.706667 13.653333-10.24 25.6-23.893333 25.6zM733.866667 677.546667c-5.12 0-8.533333-1.706667-13.653334-3.413334l-232.106666-141.653333-49.493334-186.026667c-3.413333-13.653333 5.12-27.306667 18.773334-30.72 13.653333-3.413333 27.306667 5.12 30.72 18.773334l44.373333 165.546666L747.52 631.466667c11.946667 6.826667 15.36 23.893333 8.533333 35.84-5.12 6.826667-13.653333 10.24-22.186666 10.24z" /></svg>