<?xml version="1.0" standalone="no"?><!DOCTYPE svg PUBLIC "-//W3C//DTD SVG 1.1//EN" "http://www.w3.org/Graphics/SVG/1.1/DTD/svg11.dtd"><svg class="icon" width="200px" height="200.00px" viewBox="0 0 1024 1024" version="1.1" xmlns="http://www.w3.org/2000/svg"><path d="M540.145778 867.854222A240.213333 240.213333 0 0 1 469.319111 696.888889a240.213333 240.213333 0 0 1 70.840889-170.965333A240.156444 240.156444 0 0 1 711.111111 455.096889a240.213333 240.213333 0 0 1 170.965333 70.826667A240.227556 240.227556 0 0 1 952.903111 696.888889a240.227556 240.227556 0 0 1-70.826667 170.965333A240.213333 240.213333 0 0 1 711.111111 938.680889a240.170667 240.170667 0 0 1-170.965333-70.826667zM526.222222 696.888889c0.128 102.058667 82.830222 184.760889 184.888889 184.888889 102.058667-0.113778 184.775111-82.830222 184.888889-184.888889-0.113778-102.072889-82.816-184.775111-184.888889-184.888889-102.058667 0.113778-184.775111 82.830222-184.888889 184.888889z m-85.333333 184.888889H184.888889a113.92 113.92 0 0 1-113.777778-113.777778V256a113.905778 113.905778 0 0 1 113.777778-113.777778h71.111111V99.555556a28.444444 28.444444 0 1 1 56.888889 0v42.666666h369.777778V99.555556a28.444444 28.444444 0 1 1 56.888889 0v42.666666h56.888888a113.891556 113.891556 0 0 1 113.777778 113.777778v170.666667a28.444444 28.444444 0 1 1-56.888889 0v-28.444445H142.222222a28.302222 28.302222 0 0 1-14.222222-3.811555V768a56.96 56.96 0 0 0 56.888889 56.888889h256a28.444444 28.444444 0 1 1 0 56.888889zM128 256v89.130667a28.302222 28.302222 0 0 1 14.222222-3.811556h711.111111v-85.333333a56.888889 56.888889 0 0 0-56.888889-56.888889h-56.888888v56.888889a28.444444 28.444444 0 1 1-56.888889 0v-56.888889H312.888889v56.888889a28.444444 28.444444 0 1 1-56.888889 0v-56.888889h-71.111111A56.888889 56.888889 0 0 0 128 256z m583.111111 469.333333a28.444444 28.444444 0 0 1-28.444444-28.444444v-99.555556a28.444444 28.444444 0 1 1 56.888889 0v71.111111h71.111111a28.444444 28.444444 0 1 1 0 56.888889h-99.555556z m-497.777778-14.222222a28.444444 28.444444 0 1 1 0-56.888889h142.222223a28.444444 28.444444 0 1 1 0 56.888889H213.333333z m0-156.444444a28.444444 28.444444 0 1 1 0-56.888889h142.222223a28.444444 28.444444 0 1 1 0 56.888889H213.333333z" /></svg>