<?xml version="1.0" standalone="no"?><!DOCTYPE svg PUBLIC "-//W3C//DTD SVG 1.1//EN" "http://www.w3.org/Graphics/SVG/1.1/DTD/svg11.dtd"><svg t="1694573240382" class="icon" viewBox="0 0 1024 1024" version="1.1" xmlns="http://www.w3.org/2000/svg" p-id="3519" xmlns:xlink="http://www.w3.org/1999/xlink" width="200" height="200"><path d="M934.4 460.8l-115.2-117.333333c-17.066667-17.066667-42.666667-17.066667-59.733333 0-17.066667 17.066667-17.066667 42.666667 0 59.733333l55.466666 55.466667H569.6v-234.666667l55.466667 55.466667c17.066667 17.066667 44.8 17.066667 59.733333 0 17.066667-17.066667 17.066667-44.8 0-59.733334l-117.333333-115.2c-21.333333-21.333333-57.6-21.333333-81.066667 0l-117.333333 117.333334c-17.066667 17.066667-17.066667 44.8 0 59.733333 8.533333 8.533333 19.2 12.8 29.866666 12.8 10.666667 0 21.333333-4.266667 29.866667-12.8l55.466667-55.466667v232.533334H243.2l55.466667-55.466667c17.066667-17.066667 17.066667-44.8 0-59.733333-17.066667-17.066667-44.8-17.066667-59.733334 0l-115.2 117.333333c-21.333333 21.333333-21.333333 57.6 0 81.066667l117.333334 117.333333c8.533333 8.533333 19.2 12.8 29.866666 12.8 10.666667 0 21.333333-4.266667 29.866667-12.8 17.066667-17.066667 17.066667-42.666667 0-59.733333l-55.466667-55.466667h241.066667v241.066667l-55.466667-55.466667c-17.066667-17.066667-44.8-17.066667-59.733333 0-17.066667 17.066667-17.066667 44.8 0 59.733333l117.333333 117.333334c10.666667 10.666667 25.6 17.066667 40.533334 17.066666s29.866667-6.4 40.533333-17.066666l117.333333-115.2c17.066667-17.066667 17.066667-44.8 0-59.733334-17.066667-17.066667-44.8-17.066667-59.733333 0l-55.466667 55.466667V544H810.666667l-55.466667 55.466667c-17.066667 17.066667-17.066667 44.8 0 59.733333 8.533333 8.533333 19.2 12.8 29.866667 12.8 10.666667 0 21.333333-4.266667 29.866666-12.8l117.333334-117.333333c23.466667-21.333333 23.466667-57.6 2.133333-81.066667z" p-id="3520"></path></svg>